<?xml version="1.0" encoding="utf-8"?>
<!-- Generator: Adobe Illustrator 16.0.0, SVG Export Plug-In . SVG Version: 6.00 Build 0)  -->
<!DOCTYPE svg PUBLIC "-//W3C//DTD SVG 1.1//EN" "http://www.w3.org/Graphics/SVG/1.1/DTD/svg11.dtd">
<svg version="1.1" id="Layer_1" xmlns="http://www.w3.org/2000/svg" xmlns:xlink="http://www.w3.org/1999/xlink" x="0px" y="0px"
	 width="60px" height="60px" viewBox="0 0 60 60" enable-background="new 0 0 60 60" xml:space="preserve">
<g>
	<g>
		<path fill="#198BF2" d="M29.098,0.821l13.767,24.826L56.316,51H1.885L29.098,0.821z M37.151,28.571l-7.995-14.587L12.821,44
			h32.665L37.151,28.571z"/>
	</g>
	<g>
		<path fill="#5BABF4" d="M24.874,2.183l16.458,23.206l16.196,23.692L3.436,55.153L24.874,2.183z M36.003,29.134l-9.557-13.474
			L13.577,47.46l32.462-3.644L36.003,29.134z"/>
	</g>
	<g opacity="0.6">
		<path fill="#8CF1F4" d="M20.36,3.738l19.02,21.157l18.817,21.669L5.164,58.824L20.36,3.738z M34.519,29.229L23.475,16.945
			l-9.124,33.071l31.827-7.357L34.519,29.229z"/>
	</g>
</g>
</svg>
